<?xml version="1.0" standalone="no"?>
<!DOCTYPE svg PUBLIC "-//W3C//DTD SVG 20010904//EN"
 "http://www.w3.org/TR/2001/REC-SVG-20010904/DTD/svg10.dtd">
<svg version="1.0" xmlns="http://www.w3.org/2000/svg"
 width="420.000000pt" height="420.000000pt" viewBox="0 0 420.000000 420.000000"
 preserveAspectRatio="xMidYMid meet">
<metadata>
Created by potrace 1.14, written by Peter Selinger 2001-2017
</metadata>
<g transform="translate(0.000000,420.000000) scale(0.100000,-0.100000)"
fill="#000000" stroke="none">
<path d="M2205 4093 c-142 -10 -252 -36 -384 -93 -155 -66 -380 -216 -444
-297 -10 -12 -37 -28 -60 -34 -61 -16 -183 -82 -249 -135 -124 -98 -244 -282
-304 -466 l-27 -84 -63 -17 c-166 -43 -264 -160 -279 -334 -6 -65 -3 -95 18
-180 42 -169 110 -285 254 -434 l74 -77 34 -133 c62 -246 175 -532 249 -629
90 -118 189 -186 260 -177 27 4 48 14 63 32 l22 25 20 -39 c34 -65 141 -141
215 -151 36 -5 41 -8 39 -30 -1 -14 -3 -64 -4 -112 l-2 -86 -96 -17 c-282 -51
-461 -144 -461 -240 0 -108 203 -201 563 -257 124 -19 182 -22 452 -22 270 0
328 3 452 22 188 30 320 64 415 109 241 113 180 256 -149 351 l-97 28 -62 149
-62 148 30 39 31 38 17 -38 c26 -58 66 -85 114 -78 89 15 160 85 233 231 54
107 52 105 65 82 25 -46 90 -39 162 17 65 52 159 262 211 478 77 311 144 771
145 983 0 191 -49 479 -106 622 -127 318 -377 549 -765 706 -139 57 -250 86
-349 93 -41 2 -88 6 -105 7 -16 1 -48 1 -70 0z m202 -63 c141 -19 316 -82 498
-178 113 -60 288 -190 325 -242 l20 -28 -53 20 c-28 11 -94 24 -146 29 -148
14 -276 -19 -456 -118 -22 -12 -61 -17 -150 -19 -119 -2 -198 -10 -370 -39
-49 -8 -155 -18 -236 -21 -198 -9 -329 19 -406 87 -30 25 -36 27 -65 17 -18
-6 -40 -17 -49 -24 -8 -8 -19 -14 -23 -14 -4 0 -15 -7 -24 -15 -133 -121 -219
-255 -287 -447 -21 -57 -39 -104 -40 -106 -3 -4 -126 36 -143 46 -9 7 -9 19 3
60 66 220 244 449 420 538 44 23 97 44 118 47 29 5 48 17 78 51 103 116 291
231 523 318 114 42 308 58 463 38z m-986 -573 c119 -80 332 -99 639 -57 263
36 317 41 390 38 l71 -3 -49 -55 -50 -55 -128 3 c-110 3 -138 0 -189 -18 -143
-49 -270 -179 -310 -315 -17 -58 -16 -138 1 -217 12 -52 -20 -30 -49 33 -42
90 -124 167 -217 204 -69 28 -84 30 -200 30 -118 0 -129 -2 -185 -29 -33 -16
-78 -43 -99 -60 l-39 -30 6 34 c9 40 65 163 125 271 62 112 193 249 238 249 6
0 26 -10 45 -23z m2125 -847 c-4 -63 -9 -151 -11 -195 -7 -95 -48 -365 -75
-485 -11 -47 -24 -112 -31 -145 -6 -33 -27 -112 -46 -175 -71 -233 -150 -384
-216 -411 -27 -11 -32 -10 -48 10 -14 18 -19 40 -19 92 0 37 -5 71 -10 74 -18
11 -37 -13 -44 -53 -18 -101 -99 -274 -159 -339 -67 -73 -115 -89 -158 -54
-20 16 -25 31 -29 93 -4 64 -7 73 -25 73 -13 0 -28 -15 -45 -46 -40 -73 -48
-84 -55 -77 -9 9 -66 159 -72 188 -4 24 -2 26 31 27 87 2 225 102 270 196 14
29 28 78 32 109 6 50 3 65 -21 113 -29 59 -97 120 -168 150 -20 8 -37 17 -37
19 0 3 38 25 85 50 47 25 123 72 169 105 115 83 400 367 464 462 79 118 147
263 179 379 l28 104 8 -74 c5 -41 6 -127 3 -190z m-1590 -112 c126 -145 290
-252 493 -323 164 -56 238 -69 400 -70 l143 0 -58 -53 c-68 -61 -176 -137
-265 -187 -78 -45 -287 -135 -312 -135 -10 0 -27 -5 -38 -11 -31 -16 -164 -39
-279 -48 -220 -17 -468 16 -626 82 -66 28 -75 40 -42 58 45 24 169 135 216
194 52 65 138 205 165 270 30 73 48 152 49 219 1 56 4 69 22 81 11 8 27 15 36
15 9 0 52 -42 96 -92z m-1008 -677 c104 -52 194 -74 271 -65 53 6 65 3 132
-29 41 -20 95 -41 122 -48 26 -6 47 -14 47 -18 0 -4 -20 -23 -44 -43 -130
-109 -111 -272 44 -374 38 -25 52 -29 112 -28 55 1 68 -2 68 -14 0 -13 -12
-81 -46 -269 -3 -15 -12 -23 -24 -23 -35 0 -105 39 -147 83 -46 46 -107 154
-118 204 -8 39 -21 49 -40 33 -10 -8 -12 -26 -8 -65 10 -98 -14 -133 -78 -115
-40 12 -126 94 -179 170 -52 77 -118 210 -152 310 -36 106 -98 329 -98 353 0
18 1 17 28 -1 15 -11 64 -38 110 -61z m1708 -116 c17 -13 14 -14 -43 -15 -38
0 -82 -8 -117 -21 -60 -23 -101 -20 -75 6 17 17 119 43 175 44 22 1 49 -6 60
-14z m-343 -42 c-7 -2 -19 -2 -25 0 -7 3 -2 5 12 5 14 0 19 -2 13 -5z m84 -35
c11 -13 24 -33 28 -46 7 -24 -11 -92 -24 -92 -5 0 -14 28 -20 63 -7 34 -14 70
-17 80 -7 24 9 21 33 -5z m336 11 c22 -12 37 -28 37 -40 0 -3 -18 -1 -39 4
-38 10 -188 -1 -248 -19 -29 -8 -32 21 -4 36 48 25 217 38 254 19z m-1065 -25
c41 -5 52 -10 50 -23 -5 -21 -78 -19 -131 3 -43 17 -41 42 2 32 14 -3 50 -9
79 -12z m462 -6 c63 1 133 4 156 8 36 5 42 3 47 -15 7 -29 -33 -35 -243 -35
-206 -1 -250 6 -250 36 0 20 3 20 88 13 48 -4 139 -7 202 -7z m-344 -45 c-3
-16 -8 -46 -12 -68 -10 -61 -19 -73 -34 -45 -20 36 -15 89 11 116 30 32 42 30
35 -3z m-245 -2 c24 -11 68 -23 97 -27 37 -5 52 -11 52 -22 0 -12 -10 -14 -55
-8 -74 8 -161 48 -149 67 7 12 4 12 55 -10z m1188 -14 c36 -7 66 -18 69 -26 3
-10 -3 -11 -29 -5 -19 5 -96 9 -171 9 -131 0 -171 7 -110 21 15 3 32 7 37 9
23 8 145 3 204 -8z m-604 -32 c190 0 230 -3 230 -15 0 -7 -13 -18 -30 -23 -38
-12 -370 -15 -447 -4 -53 8 -58 10 -58 34 0 24 2 25 38 17 20 -4 141 -8 267
-9z m-582 -24 c16 -6 50 -11 76 -11 55 0 62 -6 86 -75 52 -148 -94 -202 -207
-77 -48 53 -65 107 -49 155 13 38 17 38 94 8z m1202 -9 c41 -12 42 -32 2 -94
-63 -99 -145 -148 -246 -148 -116 0 -143 66 -76 186 30 53 40 63 68 67 45 7
216 -1 252 -11z m-640 -71 c66 0 152 4 190 9 77 10 101 1 63 -24 -51 -33 -471
-41 -552 -10 -15 6 -22 34 -11 45 2 3 46 -1 97 -7 51 -7 147 -13 213 -13z
m-25 -95 c80 0 171 2 203 7 57 7 58 7 55 -15 -3 -20 -11 -24 -58 -31 -129 -18
-464 -9 -499 13 -9 5 -11 17 -8 32 l6 24 78 -14 c43 -8 143 -15 223 -16z
m-206 -87 c70 -11 426 -7 476 6 24 6 72 -17 60 -28 -3 -3 -43 -11 -90 -17
-112 -17 -345 -17 -445 -1 -119 19 -125 21 -125 43 0 17 5 19 28 14 15 -3 58
-10 96 -17z m-19 -84 c142 -19 394 -19 510 0 69 11 91 11 97 2 4 -7 -1 -16
-15 -22 -25 -11 -701 -14 -712 -3 -7 6 0 38 7 38 2 0 53 -7 113 -15z m259
-107 c3 -13 14 -63 26 -112 l21 -89 -22 -23 c-25 -26 -76 -50 -87 -40 -4 4
-10 67 -13 139 -7 142 -5 147 43 147 21 0 29 -6 32 -22z m-220 -104 l108 -7
-3 -151 c-4 -142 -6 -154 -33 -209 -32 -67 -72 -97 -127 -97 -51 0 -99 36
-129 95 -23 47 -25 60 -24 190 0 83 6 152 13 169 10 26 15 28 49 22 20 -3 86
-9 146 -12z m714 -184 c77 -188 88 -233 78 -305 -6 -34 -16 -54 -44 -81 -35
-34 -40 -36 -89 -31 -61 6 -124 45 -172 106 -69 87 -171 342 -171 428 0 30 1
32 33 26 40 -6 209 22 245 41 21 11 30 12 38 3 6 -7 43 -91 82 -187z m-405
-27 l15 -53 -89 0 c-89 0 -89 0 -89 25 0 26 4 29 52 39 15 3 40 17 55 30 15
14 31 22 34 18 4 -4 13 -31 22 -59z"/>
<path d="M2067 2233 c-2 -5 -12 -33 -22 -63 -23 -74 -46 -96 -101 -103 -25 -2
-48 -8 -52 -11 -12 -13 23 -26 69 -26 79 0 129 59 129 154 0 41 -12 67 -23 49z"/>
<path d="M1752 666 c-35 -16 -51 -41 -34 -58 6 -6 20 -5 40 6 38 20 99 20 132
1 37 -21 52 -19 48 7 -6 45 -122 72 -186 44z"/>
<path d="M2482 520 c-47 -34 -60 -56 -44 -72 8 -8 19 -6 38 8 76 54 78 55 127
48 47 -6 49 -5 45 17 -3 22 -9 24 -63 27 -54 3 -65 0 -103 -28z"/>
</g>
</svg>
